<?xml version="1.0" encoding="UTF-8" standalone="no"?>


<!-- Uploaded to: SVG Repo, www.svgrepo.com, Generator: SVG Repo Mixer Tools -->
<svg 
   xmlns:dc="http://purl.org/dc/elements/1.1/"
   xmlns:cc="http://creativecommons.org/ns#"
   xmlns:rdf="http://www.w3.org/1999/02/22-rdf-syntax-ns#"
   xmlns:svg="http://www.w3.org/2000/svg"
   xmlns="http://www.w3.org/2000/svg"
   xmlns:sodipodi="http://sodipodi.sourceforge.net/DTD/sodipodi-0.dtd"
   xmlns:inkscape="http://www.inkscape.org/namespaces/inkscape"
   width="30"
   height="30"
   viewBox="0 0 30 30"
   version="1.1"
   id="svg822"
   inkscape:version="0.92.4 (f8dce91, 2019-08-02)"
   sodipodi:docname="component.svg">
  <defs
     id="defs816">
    <inkscape:path-effect
       only_selected="false"
       apply_with_weight="true"
       apply_no_weight="true"
       helper_size="0"
       steps="2"
       weight="33.333333"
       is_visible="true"
       id="path-effect1025"
       effect="bspline" />
    <inkscape:path-effect
       only_selected="false"
       apply_with_weight="true"
       apply_no_weight="true"
       helper_size="0"
       steps="2"
       weight="33.333333"
       is_visible="true"
       id="path-effect1021"
       effect="bspline" />
  </defs>
  <sodipodi:namedview
     id="base"
     pagecolor="#ffffff"
     bordercolor="#666666"
     borderopacity="1.0"
     inkscape:pageopacity="0.0"
     inkscape:pageshadow="2"
     inkscape:zoom="17.833333"
     inkscape:cx="15.271545"
     inkscape:cy="17.073208"
     inkscape:document-units="px"
     inkscape:current-layer="layer1"
     showgrid="true"
     units="px"
     inkscape:window-width="1366"
     inkscape:window-height="713"
     inkscape:window-x="0"
     inkscape:window-y="0"
     inkscape:window-maximized="1"
     showguides="false"
     inkscape:guide-bbox="true">
    <sodipodi:guide
       position="21.126168,22.794393"
       orientation="1,0"
       id="guide1575"
       inkscape:locked="false" />
    <sodipodi:guide
       position="22.682243,23.285047"
       orientation="1,0"
       id="guide1635"
       inkscape:locked="false" />
    <sodipodi:guide
       position="22.682243,7.6455921"
       orientation="0,1"
       id="guide1639"
       inkscape:locked="false" />
    <sodipodi:guide
       position="18.859863,18.859863"
       orientation="1,0"
       id="guide1242"
       inkscape:locked="false" />
    <inkscape:grid
       type="xygrid"
       id="grid1103" />
  </sodipodi:namedview>
  <metadata
     id="metadata819">
    <rdf:RDF>
      <cc:Work
         rdf:about="">
        <dc:format>image/svg+xml</dc:format>
        <dc:type
           rdf:resource="http://purl.org/dc/dcmitype/StillImage" />
        <dc:title>
</dc:title>
      </cc:Work>
    </rdf:RDF>
  </metadata>
  <g
     inkscape:label="Layer 1"
     inkscape:groupmode="layer"
     id="layer1"
     transform="translate(0,-289.0625)">
    <path
       style="color:#000000;font-style:normal;font-variant:normal;font-weight:normal;font-stretch:normal;font-size:medium;line-height:normal;font-family:sans-serif;font-variant-ligatures:normal;font-variant-position:normal;font-variant-caps:normal;font-variant-numeric:normal;font-variant-alternates:normal;font-feature-settings:normal;text-indent:0;text-align:start;text-decoration:none;text-decoration-line:none;text-decoration-style:solid;text-decoration-color:#000000;letter-spacing:normal;word-spacing:normal;text-transform:none;writing-mode:lr-tb;direction:ltr;text-orientation:mixed;dominant-baseline:auto;baseline-shift:baseline;text-anchor:start;white-space:normal;shape-padding:0;clip-rule:nonzero;display:inline;overflow:visible;visibility:visible;opacity:1;isolation:auto;mix-blend-mode:normal;color-interpolation:sRGB;color-interpolation-filters:linearRGB;solid-color:#000000;solid-opacity:1;vector-effect:none;fill:#000000;fill-opacity:1;fill-rule:nonzero;stroke:none;stroke-width:2;stroke-linecap:butt;stroke-linejoin:miter;stroke-miterlimit:4;stroke-dasharray:none;stroke-dashoffset:0;stroke-opacity:1;color-rendering:auto;image-rendering:auto;shape-rendering:auto;text-rendering:auto;enable-background:accumulate"
       d="M 11 3 L 11 6 L 9 6 C 7.3552972 6 6 7.3553 6 9 L 6 11 L 3 11 L 3 13 L 6 13 L 6 17 L 3 17 L 3 19 L 6 19 L 6 21 C 6 22.6447 7.3552972 24 9 24 L 11 24 L 11 27 L 13 27 L 13 24 L 17 24 L 17 27 L 19 27 L 19 24 L 21 24 C 22.644703 24 24 22.6447 24 21 L 24 19 L 27 19 L 27 17 L 24 17 L 24 13 L 27 13 L 27 11 L 24 11 L 24 9 C 24 7.3553 22.644703 6 21 6 L 19 6 L 19 3 L 17 3 L 17 6 L 13 6 L 13 3 L 11 3 z M 9 8 L 21 8 C 21.571297 8 22 8.4287 22 9 L 22 21 C 22 21.5713 21.571297 22 21 22 L 9 22 C 8.4287028 22 8 21.5713 8 21 L 8 9 C 8 8.4287 8.4287028 8 9 8 z M 13 12 C 12.446 12 12 12.446 12 13 L 12 17 C 12 17.554 12.446 18 13 18 L 17 18 C 17.554 18 18 17.554 18 17 L 18 13 C 18 12.446 17.554 12 17 12 L 13 12 z "
       transform="translate(0,289.0625)"
       id="rect920" />
  </g>
</svg>