<!DOCTYPE svg PUBLIC "-//W3C//DTD SVG 1.1//EN" "http://www.w3.org/Graphics/SVG/1.1/DTD/svg11.dtd">
<!-- Uploaded to: SVG Repo, www.svgrepo.com, Transformed by: SVG Repo Mixer Tools -->
<svg version="1.1" id="Uploaded to svgrepo.com" xmlns="http://www.w3.org/2000/svg" xmlns:xlink="http://www.w3.org/1999/xlink" width="64px" height="64px" viewBox="0 0 32 32" xml:space="preserve" fill="#000000">
<g id="SVGRepo_bgCarrier" stroke-width="0"/>
<g id="SVGRepo_tracerCarrier" stroke-linecap="round" stroke-linejoin="round"/>
<g id="SVGRepo_iconCarrier"> <style type="text/css"> .puchipuchi_een{fill:#111918;} </style> <path class="puchipuchi_een" d="M23.071,20.243c0.781,0.781,0.781,2.047,0,2.828s-2.047,0.781-2.828,0L16,18.828l-4.243,4.243 c-0.781,0.781-2.047,0.781-2.828,0s-0.781-2.047,0-2.828L13.172,16l-4.243-4.243c-0.781-0.781-0.781-2.047,0-2.828 s2.047-0.781,2.828,0L16,13.172l4.243-4.243c0.781-0.781,2.047-0.781,2.828,0s0.781,2.047,0,2.828L18.828,16L23.071,20.243z"/> </g>
</svg>